<svg width="56" height="56" viewBox="0 0 56 56" fill="none" xmlns="http://www.w3.org/2000/svg">
<path d="M9.13248 16.7357C8.34763 16.2824 7.34446 16.5516 6.89158 17.336C6.43827 18.1208 6.70743 19.124 7.49186 19.5769C8.27628 20.0302 9.27988 19.761 9.73276 18.9766C10.1861 18.1917 9.9169 17.1886 9.13248 16.7357Z" fill="#F8A48E"/>
<path d="M50.9683 13.2347H49.3276V11.5941C49.3276 10.6875 48.594 9.95349 47.687 9.95349C46.7804 9.95349 46.0464 10.6875 46.0464 11.5941V13.2347H44.4058C43.4991 13.2347 42.7651 13.9687 42.7651 14.8754C42.7651 15.7824 43.4991 16.516 44.4058 16.516H46.0464V18.1566C46.0464 19.0632 46.7804 19.7972 47.687 19.7972C48.594 19.7972 49.3276 19.0632 49.3276 18.1566V16.516H50.9683C51.8749 16.516 52.6089 15.7824 52.6089 14.8754C52.6089 13.9687 51.8749 13.2347 50.9683 13.2347Z" fill="#F8A48E"/>
<path d="M6.67187 8.20348C6.67187 9.11053 7.40545 9.84411 8.3125 9.84411C9.21911 9.84411 9.95312 9.11053 9.95312 8.20348V6.56286H11.5937C12.5004 6.56286 13.2344 5.82928 13.2344 4.92224C13.2344 4.01562 12.5004 3.28161 11.5937 3.28161H9.95312V1.64099C9.95312 0.734374 9.21911 0.000366211 8.3125 0.000366211C7.40545 0.000366211 6.67187 0.734374 6.67187 1.64099V3.28161H5.03125C4.12463 3.28161 3.39062 4.01562 3.39062 4.92224C3.39062 5.82928 4.12463 6.56286 5.03125 6.56286H6.67187V8.20348Z" fill="#F8A48E"/>
<path d="M17.0347 3.06724C18.5963 6.19126 19.4636 9.63999 19.6819 13.1255H36.318C36.5359 9.64042 37.4032 6.19126 38.9648 3.06724L39.3109 2.3751C39.6266 1.74406 39.5031 0.981429 39.0033 0.481552C38.5051 -0.0183256 37.7425 -0.1418 37.1097 0.173935L31.6046 2.92625L29.1595 0.481552C28.5187 -0.159317 27.4804 -0.159317 26.8396 0.481552L24.3949 2.92625L18.8898 0.173508C18.2554 -0.1418 17.4978 -0.0200346 16.9963 0.481552C16.4964 0.981002 16.3729 1.74364 16.6886 2.3751L17.0347 3.06724Z" fill="#F8A48E"/>
<path d="M38.0445 16.516H17.9546L11.5489 24.2688C8.40393 28.0773 6.67188 33.0072 6.67188 37.9535C6.67188 48.9166 15.0433 55.9999 27.9996 55.9999C40.9562 55.9999 49.3277 48.9166 49.3277 37.9535C49.3277 33.0072 47.5956 28.1866 44.4489 24.3782L38.0445 16.516ZM27.982 33.5123C30.6963 33.5123 32.9039 35.7198 32.9039 38.4341C32.9039 40.5635 31.5367 42.3635 29.6402 43.048V44.516C29.6402 45.4226 28.9066 46.1566 27.9996 46.1566C27.0929 46.1566 26.3594 45.4226 26.3594 44.516V43.0591C24.4444 42.3844 23.0602 40.5763 23.0602 38.4341C23.0602 37.5271 23.7942 36.7935 24.7008 36.7935C25.6078 36.7935 26.3414 37.5271 26.3414 38.4341C26.3414 39.3395 27.0771 40.0747 27.982 40.0747C28.8874 40.0747 29.6227 39.3395 29.6227 38.4341C29.6227 37.5288 28.8874 36.7935 27.982 36.7935C25.2682 36.7935 23.0602 34.5855 23.0602 31.8716C23.0602 29.729 24.4444 27.9213 26.3594 27.2467V24.8285C26.3594 23.9219 27.0929 23.1879 27.9996 23.1879C28.9066 23.1879 29.6402 23.9219 29.6402 24.8285V27.2578C31.5367 27.9423 32.9039 29.7422 32.9039 31.8716C32.9039 32.7787 32.1703 33.5123 31.2633 33.5123C30.3567 33.5123 29.6227 32.7787 29.6227 31.8716C29.6227 30.9667 28.8874 30.231 27.982 30.231C27.0771 30.231 26.3414 30.9667 26.3414 31.8716C26.3414 32.777 27.0767 33.5123 27.982 33.5123Z" fill="#F8A48E"/>
</svg>
