<svg width="56" height="56" viewBox="0 0 56 56" fill="none" xmlns="http://www.w3.org/2000/svg">
<g clip-path="url(#clip0_9_220)">
<path d="M29.3335 10.7285V8H36C36.3535 8 36.6929 7.85986 36.9429 7.60986C37.1934 7.35938 37.3335 7.02051 37.3335 6.6665V1.3335C37.3335 0.979492 37.1934 0.640625 36.9429 0.390137C36.6929 0.140137 36.3535 0 36 0H28C27.6465 0 27.3071 0.140137 27.0571 0.390137C26.8066 0.640625 26.6665 0.979492 26.6665 1.3335V10.7285C20 10.6665 9.3335 16 8.08154 24H47.9185C46.6665 16 36 10.6665 29.3335 10.7285Z" fill="#F8A48E"/>
<path d="M5.3335 50.6665H50.6665C51.4028 50.6665 52 51.2637 52 52V54.6665C52 55.4028 51.4028 56 50.6665 56H5.3335C4.59717 56 4 55.4028 4 54.6665V52C4 51.2637 4.59717 50.6665 5.3335 50.6665Z" fill="#F8A48E"/>
<path d="M9.3335 34.6665H14.6665V48H9.3335V34.6665Z" fill="#F8A48E"/>
<path d="M6.6665 32H49.3335C50.8062 32 52 30.8062 52 29.3335C52 27.8604 50.8062 26.6665 49.3335 26.6665H6.6665C5.19385 26.6665 4 27.8604 4 29.3335C4 30.8062 5.19385 32 6.6665 32Z" fill="#F8A48E"/>
<path d="M30.6665 34.6665H36V48H30.6665V34.6665Z" fill="#F8A48E"/>
<path d="M20 34.6665H25.3335V48H20V34.6665Z" fill="#F8A48E"/>
<path d="M41.3335 34.6665H46.6665V48H41.3335V34.6665Z" fill="#F8A48E"/>
</g>
<defs>
<clipPath id="clip0_9_220">
<rect width="56" height="56" fill="white"/>
</clipPath>
</defs>
</svg>
