<svg width="56" height="56" viewBox="0 0 56 56" fill="none" xmlns="http://www.w3.org/2000/svg">
<g clip-path="url(#clip0_9_236)">
<path d="M27.9996 17.3312C22.116 17.3312 17.3296 22.1176 17.3296 28.0008C17.3296 33.8844 22.116 38.6708 27.9996 38.6708C33.8828 38.6708 38.6692 33.8844 38.6692 28.0008C38.6692 22.1176 33.8828 17.3312 27.9996 17.3312ZM34.3344 25.9914L26.6905 33.6353C26.3697 33.9561 25.9488 34.1168 25.5284 34.1168C25.108 34.1168 24.6876 33.9566 24.3667 33.6353L21.4457 30.7142C20.8039 30.0729 20.8039 29.0326 21.4457 28.3908C22.087 27.7491 23.1273 27.7491 23.769 28.3908L25.5284 30.1502L32.011 23.6681C32.6523 23.0264 33.6926 23.0264 34.3344 23.6681C34.9761 24.3094 34.9761 25.3497 34.3344 25.9914Z" fill="#F8A48E"/>
<path d="M51.7876 15.1941L51.7859 15.1505C51.7616 14.6126 51.7453 14.0435 51.7355 13.4103C51.6898 10.3226 49.2353 7.76858 46.1471 7.59597C39.7086 7.23666 34.7277 5.13718 30.472 0.989057L30.4356 0.95445C29.0475 -0.318313 26.9536 -0.318313 25.565 0.95445L25.5287 0.989057C21.2729 5.13718 16.2921 7.23666 9.85354 7.5964C6.76584 7.76858 4.31089 10.3226 4.26518 13.4108C4.25578 14.0397 4.23912 14.6088 4.21476 15.1505L4.2122 15.2518C4.08702 21.8172 3.9315 29.9883 6.66501 37.4049C8.16806 41.4833 10.4444 45.0286 13.4304 47.9428C16.8313 51.2617 21.2858 53.8965 26.6699 55.7738C26.8451 55.8349 27.0271 55.8845 27.2125 55.9216C27.474 55.9738 27.7372 55.9998 28.0003 55.9998C28.2635 55.9998 28.5271 55.9738 28.7882 55.9216C28.9736 55.8845 29.1569 55.8345 29.3329 55.773C34.7106 53.8922 39.1604 51.2561 42.5583 47.9377C45.543 45.0226 47.8194 41.4765 49.3237 37.3972C52.0675 29.9584 51.9124 21.772 51.7876 15.1941ZM27.9995 41.9567C20.304 41.9567 14.0435 35.6963 14.0435 28.0008C14.0435 20.3052 20.304 14.0448 27.9995 14.0448C35.6946 14.0448 41.9554 20.3052 41.9554 28.0008C41.9554 35.6963 35.6946 41.9567 27.9995 41.9567Z" fill="#F8A48E"/>
</g>
<defs>
<clipPath id="clip0_9_236">
<rect width="56" height="56" fill="white"/>
</clipPath>
</defs>
</svg>
