<svg width="47" height="56" viewBox="0 0 47 56" fill="none" xmlns="http://www.w3.org/2000/svg">
<path fill-rule="evenodd" clip-rule="evenodd" d="M46.0754 53.8053V56H0.0959473V53.8053H46.0754ZM35.8288 52.2053H42.1851V23.6109H35.8288V52.2053ZM31.5709 52.2053V29.2706H25.2147V52.2053H31.5709ZM10.3425 52.2053V40.5903H3.98622V52.2053H10.3425ZM20.9567 52.2053V34.9305H14.6005V52.2053H20.9567ZM37.1765 16.9239L39.7401 19.0578C39.896 19.1875 40.0969 19.2178 40.2841 19.1398C40.4713 19.062 40.5914 18.898 40.6093 18.696L41.5792 7.68203C41.5951 7.50203 41.5271 7.33997 41.3875 7.22523C41.248 7.11049 41.0759 7.07494 40.9024 7.12511L30.3619 10.1734C30.1681 10.2296 30.0308 10.3776 29.9894 10.5749C29.9482 10.7724 30.0146 10.963 30.1695 11.0921L32.5698 13.0898C29.3038 17.1838 18.0279 27.2715 1.35777 27.2715C16.5956 31.3546 29.3178 25.5597 37.1766 16.924L37.1765 16.9239ZM4.64027 10.6542C4.64027 6.58923 7.94414 3.28204 12.0146 3.28204C16.0851 3.28204 19.3835 6.58923 19.3835 10.6542C19.3835 14.7193 16.0797 18.0269 12.0146 18.0269C7.94963 18.0269 4.64027 14.7197 4.64027 10.6542ZM13.6087 12.5146C13.5811 12.7517 13.4266 12.9625 13.1895 13.0794C12.2904 13.5277 10.6744 13.2498 10.3103 12.5841C10.0952 12.1969 9.60985 12.0546 9.22379 12.2669C8.83774 12.4787 8.69431 12.9652 8.90391 13.3524C9.33957 14.1428 10.2332 14.6287 11.2094 14.8118V15.5113C11.2094 15.9525 11.5679 16.311 12.0092 16.311C12.4504 16.311 12.8089 15.9525 12.8089 15.5113V14.8438C13.2061 14.7843 13.5755 14.6734 13.901 14.5117C14.6181 14.1549 15.1034 13.4809 15.1973 12.7082C15.313 11.786 14.8829 10.9896 13.9894 10.4656C13.3882 10.112 12.7593 9.96305 12.1527 9.81859C11.9541 9.77002 11.761 9.7243 11.568 9.67082C10.9999 9.5131 10.6966 9.34099 10.5421 9.09551C10.3545 8.80316 10.5255 8.55494 10.6414 8.43357C10.9502 8.11094 11.6893 7.94648 12.4009 8.04248C12.9635 8.11917 13.4047 8.34637 13.5647 8.63425C13.7743 9.02362 14.2597 9.16922 14.6457 8.95973C15.0374 8.74956 15.1807 8.26477 14.9711 7.87585C14.5905 7.16934 13.8073 6.67014 12.809 6.48866V5.79758C12.809 5.35586 12.4505 4.99781 12.0093 4.99781C11.568 4.99781 11.2095 5.35575 11.2095 5.79758V6.48317C10.5145 6.60832 9.89682 6.90077 9.48871 7.32546C8.77168 8.069 8.6558 9.09711 9.18528 9.94373C9.67065 10.7198 10.4814 11.0292 11.1378 11.2124C11.3584 11.2736 11.5735 11.3249 11.7831 11.3752C12.3016 11.4977 12.787 11.6129 13.1785 11.8451C13.6198 12.1043 13.6363 12.327 13.6087 12.5146ZM1.35788 10.6541C1.35788 4.78604 6.14392 0 12.012 0C17.8801 0 22.666 4.78604 22.666 10.6541C22.666 16.5222 17.8801 21.3083 12.012 21.3083C6.14392 21.3083 1.35788 16.5222 1.35788 10.6541ZM3.04085 10.6541C3.04085 15.6017 7.06723 19.6263 12.0148 19.6263C16.9623 19.6263 20.9831 15.6015 20.9831 10.6541C20.9831 5.70672 16.9566 1.68205 12.0146 1.68205C7.07272 1.68205 3.04074 5.70729 3.04074 10.6542L3.04085 10.6541Z" fill="#F8A48E"/>
</svg>
